<svg id="Pictograms" xmlns="http://www.w3.org/2000/svg" viewBox="0 0 240 240"><defs><style>.cls-1{fill:#fff;}.cls-2{fill:#e35500;}.cls-3,.cls-4,.cls-5{fill:#f0ab00;}.cls-4{opacity:0.7;}.cls-5{opacity:0.4;}</style></defs><title>281437-pictogram-neg</title><path class="cls-1" d="M76,72h36V88H60V84h48V76H76ZM71.5,196H108v8H40.5v4H112V192H71.5ZM40,124h68v8H28v4h84V120H40Zm52,40a4,4,0,0,1-4,4H44v4H88a8,8,0,0,0,0-16H20v4H88A4,4,0,0,1,92,164ZM64,60.5a8,8,0,0,0-8-8H28v4H56a4,4,0,0,1,0,8H15.5v4H56A8,8,0,0,0,64,60.5ZM156,84H140V68h16Zm-4-12h-8v8h8Zm-8,48H128V104h16Zm-4-12h-8v8h8Zm-8,84h16v16H132Zm4,12h8v-8h-8Zm39-51h16v16H176v15H160V168h15Zm-3,19h-8v8h8Zm7-7h8v-8h-8Zm-15-9.5H148v-16h16Zm-4-12h-8v8h8Zm16-75H160v-16h16Zm-4-12h-8v8h8Zm40,44H196v-16h16Zm-4-12h-8v8h8ZM180,112h16v16H180Zm4,12h8v-8h-8Zm43.5-.5v16h-16v-16Zm-4,4h-8v8h8Z"/><rect class="cls-2" x="24" y="108" width="192" height="24" transform="translate(240 0) rotate(90)"/><rect class="cls-3" x="96" y="36" width="48" height="24" transform="translate(168 -72) rotate(90)"/><rect class="cls-4" x="96" y="84" width="48" height="24" transform="translate(216 -24) rotate(90)"/><rect class="cls-5" x="96" y="132" width="48" height="24" transform="translate(264 24) rotate(90)"/></svg>