<?xml version="1.0" encoding="UTF-8" standalone="no"?>
<svg
   xmlns:dc="http://purl.org/dc/elements/1.1/"
   xmlns:cc="http://creativecommons.org/ns#"
   xmlns:rdf="http://www.w3.org/1999/02/22-rdf-syntax-ns#"
   xmlns:svg="http://www.w3.org/2000/svg"
   xmlns="http://www.w3.org/2000/svg"
   xmlns:sodipodi="http://sodipodi.sourceforge.net/DTD/sodipodi-0.dtd"
   xmlns:inkscape="http://www.inkscape.org/namespaces/inkscape"
   viewBox="0 0 245.33333 146.54666"
   height="146.54666"
   width="245.33333"
   xml:space="preserve"
   id="svg2"
   version="1.1"
   sodipodi:docname="bicycle.svg"
   inkscape:version="0.92.3 (2405546, 2018-03-11)"><sodipodi:namedview
     pagecolor="#ffffff"
     bordercolor="#666666"
     borderopacity="1"
     objecttolerance="10"
     gridtolerance="10"
     guidetolerance="10"
     inkscape:pageopacity="0"
     inkscape:pageshadow="2"
     inkscape:window-width="2560"
     inkscape:window-height="1387"
     id="namedview68"
     showgrid="false"
     inkscape:zoom="0.7137097"
     inkscape:cx="161.8983"
     inkscape:cy="-14.997303"
     inkscape:window-x="-8"
     inkscape:window-y="-8"
     inkscape:window-maximized="1"
     inkscape:current-layer="svg2" /><metadata
     id="metadata8"><rdf:RDF><cc:Work
         rdf:about=""><dc:format>image/svg+xml</dc:format><dc:type
           rdf:resource="http://purl.org/dc/dcmitype/StillImage" /></cc:Work></rdf:RDF></metadata><defs
     id="defs6"><clipPath
       id="clipPath18"
       clipPathUnits="userSpaceOnUse"><path
         id="path16"
         d="M 0,248 H 248 V 0 H 0 Z"
         inkscape:connector-curvature="0" /></clipPath><clipPath
       id="clipPath34"
       clipPathUnits="userSpaceOnUse"><path
         id="path32"
         d="M 0,248 H 248 V 0 H 0 Z"
         inkscape:connector-curvature="0" /></clipPath><clipPath
       id="clipPath50"
       clipPathUnits="userSpaceOnUse"><path
         id="path48"
         d="M 0,248 H 248 V 0 H 0 Z"
         inkscape:connector-curvature="0" /></clipPath><clipPath
       id="clipPath58"
       clipPathUnits="userSpaceOnUse"><path
         id="path56"
         d="m 145.349,106.744 h 32.608 V 74.3437 h -32.608 z"
         inkscape:connector-curvature="0" /></clipPath><clipPath
       id="clipPath74"
       clipPathUnits="userSpaceOnUse"><path
         id="path72"
         d="m 37.4078,106.837 h 32.6085 v -32.4 H 37.4078 Z"
         inkscape:connector-curvature="0" /></clipPath><clipPath
       id="clipPath90"
       clipPathUnits="userSpaceOnUse"><path
         id="path88"
         d="M 0,248 H 248 V 0 H 0 Z"
         inkscape:connector-curvature="0" /></clipPath><clipPath
       id="clipPath98"
       clipPathUnits="userSpaceOnUse"><path
         id="path96"
         d="m 159.01,106.744 h 18.947 V 69.211 H 159.01 Z"
         inkscape:connector-curvature="0" /></clipPath><clipPath
       id="clipPath114"
       clipPathUnits="userSpaceOnUse"><path
         id="path112"
         d="M 51.0694,106.837 H 70.0163 V 69.3042 H 51.0694 Z"
         inkscape:connector-curvature="0" /></clipPath><clipPath
       id="clipPath130"
       clipPathUnits="userSpaceOnUse"><path
         id="path128"
         d="M 0,248 H 248 V 0 H 0 Z"
         inkscape:connector-curvature="0" /></clipPath></defs><g
     transform="matrix(1.3333333,0,0,-1.3333333,-42.666666,238.60613)"
     id="g10"><g
       id="g12"><g
         clip-path="url(#clipPath18)"
         id="g14"><g
           transform="translate(177.957,106.7432)"
           id="g20"><path
             id="path22"
             style="fill:#008fd3;fill-opacity:1;fill-rule:nonzero;stroke:none"
             d="m 0,0 -37.532,0.209 c -0.038,-6.902 1.506,-12.797 4.924,-18.794 3.418,-5.997 7.703,-10.33 13.661,-13.814 5.959,-3.485 11.836,-5.095 18.739,-5.133 6.902,-0.038 12.797,1.506 18.794,4.924 z"
             inkscape:connector-curvature="0" /></g><g
           transform="translate(70.0161,106.8369)"
           id="g24"><path
             id="path26"
             style="fill:#008fd3;fill-opacity:1;fill-rule:nonzero;stroke:none"
             d="m 0,0 -37.532,0.208 c -0.039,-6.902 1.506,-12.797 4.924,-18.794 3.418,-5.997 7.703,-10.329 13.661,-13.814 5.959,-3.485 11.836,-5.094 18.739,-5.132 6.902,-0.039 12.797,1.506 18.794,4.924 z"
             inkscape:connector-curvature="0" /></g></g></g><g
       id="g28"><g
         clip-path="url(#clipPath34)"
         id="g30"><g
           transform="translate(177.957,106.7432)"
           id="g36"><path
             id="path38"
             style="fill:#f0ab00;fill-opacity:1;fill-rule:nonzero;stroke:none"
             d="m 0,0 -32.608,-18.585 c -3.418,5.997 -4.962,11.892 -4.924,18.794 z"
             inkscape:connector-curvature="0" /></g><g
           transform="translate(70.0161,106.8369)"
           id="g40"><path
             id="path42"
             style="fill:#f0ab00;fill-opacity:1;fill-rule:nonzero;stroke:none"
             d="m 0,0 -32.608,-18.586 c -3.418,5.997 -4.963,11.892 -4.924,18.794 z"
             inkscape:connector-curvature="0" /></g></g></g><g
       id="g44"><g
         clip-path="url(#clipPath50)"
         id="g46"><g
           id="g52"><g
             id="g54" /><g
             id="g66"><g
               style="opacity:0.69999701"
               id="g64"
               clip-path="url(#clipPath58)"><g
                 id="g62"
                 transform="translate(177.957,106.7432)"><path
                   id="path60"
                   style="fill:#f0ab00;fill-opacity:1;fill-rule:nonzero;stroke:none"
                   d="m 0,0 -18.946,-32.399 c -5.959,3.484 -10.244,7.817 -13.662,13.814 z"
                   inkscape:connector-curvature="0" /></g></g></g></g><g
           id="g68"><g
             id="g70" /><g
             id="g82"><g
               style="opacity:0.69999701"
               id="g80"
               clip-path="url(#clipPath74)"><g
                 id="g78"
                 transform="translate(70.0161,106.8369)"><path
                   id="path76"
                   style="fill:#f0ab00;fill-opacity:1;fill-rule:nonzero;stroke:none"
                   d="m 0,0 -18.947,-32.4 c -5.958,3.485 -10.243,7.817 -13.661,13.814 z"
                   inkscape:connector-curvature="0" /></g></g></g></g></g></g><g
       id="g84"><g
         clip-path="url(#clipPath90)"
         id="g86"><g
           id="g92"><g
             id="g94" /><g
             id="g106"><g
               style="opacity:0.39999402"
               id="g104"
               clip-path="url(#clipPath98)"><g
                 id="g102"
                 transform="translate(177.957,106.7432)"><path
                   id="path100"
                   style="fill:#f0ab00;fill-opacity:1;fill-rule:nonzero;stroke:none"
                   d="m 0,0 -0.208,-37.532 c -6.903,0.038 -12.78,1.648 -18.738,5.133 z"
                   inkscape:connector-curvature="0" /></g></g></g></g><g
           id="g108"><g
             id="g110" /><g
             id="g122"><g
               style="opacity:0.39999402"
               id="g120"
               clip-path="url(#clipPath114)"><g
                 id="g118"
                 transform="translate(70.0161,106.8369)"><path
                   id="path116"
                   style="fill:#f0ab00;fill-opacity:1;fill-rule:nonzero;stroke:none"
                   d="m 0,0 -0.208,-37.532 c -6.903,0.038 -12.78,1.647 -18.739,5.132 z"
                   inkscape:connector-curvature="0" /></g></g></g></g></g></g><g
       id="g124"><g
         clip-path="url(#clipPath130)"
         id="g126"><g
           transform="translate(154,176.9546)"
           id="g132"><path
             id="path134"
             style="fill:#ffffff;fill-opacity:1;fill-rule:nonzero;stroke:none"
             d="m 0,0 c 0,1.104 0.896,2 2,2 h 10.294 c 7.143,0 12.954,-5.812 12.954,-12.955 0,-7.143 -5.811,-12.954 -12.954,-12.954 -1.105,0 -2,0.895 -2,2 0,1.104 0.895,2 2,2 4.937,0 8.954,4.016 8.954,8.954 0,4.938 -4.017,8.955 -8.954,8.955 L 2,-2 C 0.896,-2 0,-1.104 0,0 M -4.224,-27.916 -35.093,-65.683 -45.89,-27.98 Z M 24,-31.909 c -5.979,0 -11.89,-1.433 -17.186,-4.121 l -4.995,10.951 c -0.007,0.016 -0.017,0.028 -0.025,0.043 -0.025,0.053 -0.056,0.103 -0.086,0.154 -0.024,0.041 -0.047,0.082 -0.073,0.12 -0.018,0.025 -0.036,0.049 -0.055,0.072 -0.03,0.04 -0.065,0.077 -0.101,0.115 -0.031,0.035 -0.06,0.072 -0.094,0.104 -0.028,0.026 -0.055,0.05 -0.083,0.075 -0.013,0.011 -0.023,0.024 -0.036,0.036 -0.024,0.019 -0.05,0.031 -0.075,0.049 -0.037,0.027 -0.071,0.056 -0.11,0.08 -0.032,0.022 -0.065,0.04 -0.1,0.059 -0.043,0.024 -0.085,0.046 -0.129,0.066 -0.039,0.018 -0.076,0.037 -0.116,0.053 -0.034,0.013 -0.069,0.024 -0.105,0.036 -0.049,0.017 -0.099,0.03 -0.15,0.043 -0.038,0.01 -0.076,0.021 -0.116,0.028 -0.037,0.007 -0.074,0.01 -0.111,0.015 -0.055,0.007 -0.109,0.011 -0.164,0.013 -0.03,10e-4 -0.059,0.009 -0.09,0.009 h -0.003 l -47.032,-0.074 -2.312,8.074 h 8.063 c 3.465,0 6.284,2.819 6.284,6.284 0,3.108 -2.32,5.782 -5.396,6.221 l -19.43,2.776 c -1.805,0.257 -3.63,-0.28 -5.007,-1.474 C -66.21,-3.296 -67,-5.026 -67,-6.849 c 0,-1.105 0.896,-2 2,-2 1.104,0 2,0.895 2,2 0,0.672 0.279,1.285 0.787,1.725 0.508,0.441 1.158,0.633 1.82,0.536 l 19.432,-2.776 c 1.118,-0.159 1.961,-1.132 1.961,-2.261 0,-1.259 -1.024,-2.284 -2.284,-2.284 h -13.369 l 4.04,-14.108 -10.886,-13.272 c -6.49,4.77 -14.412,7.38 -22.501,7.38 -20.953,0 -38,-17.047 -38,-38.001 0,-20.953 17.047,-38 38,-38 20.953,0 38,17.047 38,38 0,1.106 -0.896,2 -2,2 -1.104,0 -2,-0.894 -2,-2 0,-18.748 -15.252,-34 -34,-34 -18.748,0 -34,15.252 -34,34 0,18.749 15.252,34.001 34,34.001 7.167,0 14.185,-2.293 19.959,-6.479 l -15.313,-18.67 c -1.427,0.751 -3.009,1.148 -4.646,1.148 -5.514,0 -10,-4.486 -10,-10 0,-5.513 4.486,-10 10,-10 1.104,0 2,0.897 2,2 0,1.106 -0.896,2 -2,2 -3.309,0 -6,2.692 -6,6 0,3.309 2.691,6 6,6 1.249,0 2.446,-0.379 3.462,-1.097 0.007,-0.005 0.014,-0.008 0.02,-0.012 0.082,-0.099 0.172,-0.191 0.275,-0.275 0.372,-0.307 0.821,-0.456 1.267,-0.456 0.579,0 1.153,0.25 1.547,0.733 l 28.154,34.326 11.388,-39.769 c 10e-4,-0.002 0.003,-0.005 0.004,-0.008 0.054,-0.188 0.144,-0.364 0.253,-0.531 0.021,-0.032 0.039,-0.063 0.061,-0.092 0.098,-0.133 0.207,-0.258 0.34,-0.367 0.016,-0.013 0.034,-0.022 0.05,-0.035 0.022,-0.016 0.045,-0.03 0.067,-0.046 0.16,-0.112 0.329,-0.204 0.507,-0.263 0.01,-0.004 0.022,-0.005 0.033,-0.009 0.194,-0.062 0.394,-0.096 0.595,-0.097 0.004,0 0.008,-0.002 0.012,-0.002 0.01,0 0.02,0.004 0.029,0.004 0.159,0.002 0.316,0.027 0.47,0.067 0.018,0.004 0.035,0.002 0.053,0.007 0.059,0.017 0.11,0.044 0.166,0.067 0.055,0.02 0.11,0.039 0.164,0.064 0.087,0.043 0.168,0.096 0.247,0.151 0.035,0.024 0.073,0.044 0.107,0.07 0.113,0.089 0.215,0.188 0.305,0.296 0.003,0.004 0.006,0.006 0.009,0.009 l 33.93,41.511 17.305,-37.935 c 0.656,-1.611 2.81,-4.393 6.617,-4.393 0.242,0 0.491,0.012 0.747,0.035 1.099,0.102 1.909,1.077 1.807,2.176 -0.099,1.098 -1.052,1.906 -2.175,1.807 -2.266,-0.207 -3.152,1.557 -3.293,1.889 -0.013,0.035 -0.028,0.068 -0.044,0.101 L 8.476,-39.67 c 4.773,2.454 10.117,3.761 15.524,3.761 18.748,0 34,-15.252 34,-34.001 0,-18.748 -15.252,-34 -34,-34 -18.748,0 -34,15.252 -34,34 0,1.106 -0.896,2 -2,2 -1.104,0 -2,-0.894 -2,-2 0,-20.953 17.047,-38 38,-38 20.953,0 38,17.047 38,38 0,20.954 -17.047,38.001 -38,38.001"
             inkscape:connector-curvature="0" /></g></g></g></g></svg>